<svg id="DESIGN" xmlns="http://www.w3.org/2000/svg" viewBox="0 0 20 20"><defs><style>.cls-1{fill:#fff;}</style></defs><title>Showcases-Icon</title><path class="cls-1" d="M43.55,4783.67v18h-18v-18h18m1-1h-20v20h20v-20h0Z" transform="translate(-24.55 -4782.67)"/><rect class="cls-1" x="3.21" y="3.11" width="6" height="6"/><path class="cls-1" d="M40.63,4786.78v4h-4v-4h4m1-1h-6v6h6v-6h0Z" transform="translate(-24.55 -4782.67)"/><path class="cls-1" d="M40.63,4794.36v4h-4v-4h4m1-1h-6v6h6v-6h0Z" transform="translate(-24.55 -4782.67)"/><path class="cls-1" d="M32.76,4794.36v4h-4v-4h4m1-1h-6v6h6v-6h0Z" transform="translate(-24.55 -4782.67)"/></svg>