<svg id="DESIGN" xmlns="http://www.w3.org/2000/svg" viewBox="0 0 21.66 17.33"><defs><style>.cls-1{fill:#fff;}</style></defs><title>Events-Icon</title><path class="cls-1" d="M35.19,4924.83a6.62,6.62,0,0,1-.82.61q-0.45.29-.86,0.59a4.67,4.67,0,0,0-1.35,1.37,3.46,3.46,0,0,0-.51,1.84h5.76V4928H33.31a1.35,1.35,0,0,1,.31-0.53,3.88,3.88,0,0,1,.53-0.48c0.21-.15.43-0.31,0.67-0.46l0.72-.48c0.24-.17.47-0.35,0.7-0.55a4.4,4.4,0,0,0,.6-0.64,3,3,0,0,0,.42-0.76,2.59,2.59,0,0,0,.16-0.92,3.14,3.14,0,0,0-.13-0.87,2.39,2.39,0,0,0-.45-0.84,2.48,2.48,0,0,0-.84-0.64,3.32,3.32,0,0,0-2.54,0,2.66,2.66,0,0,0-.91.68,2.9,2.9,0,0,0-.56,1,4.37,4.37,0,0,0-.19,1.3h1.37a5.14,5.14,0,0,1,.09-0.84,2.29,2.29,0,0,1,.24-0.67,1.21,1.21,0,0,1,.43-0.45,1.31,1.31,0,0,1,.68-0.16,1.5,1.5,0,0,1,.72.15,1.26,1.26,0,0,1,.43.38,1.32,1.32,0,0,1,.21.49,2.49,2.49,0,0,1,.05.49,1.68,1.68,0,0,1-.25.88A3.21,3.21,0,0,1,35.19,4924.83Z" transform="translate(-23.72 -4914.8)"/><path class="cls-1" d="M23.72,4914.8v17.33H45.38V4914.8H23.72Zm20.94,16.61H24.44v-13H44.66v13Z" transform="translate(-23.72 -4914.8)"/></svg>