<svg id="DESIGN" xmlns="http://www.w3.org/2000/svg" viewBox="0 0 262.66 299"><defs><style>.cls-1{fill:#fff;}</style></defs><title>IBM-Logo-1</title><path class="cls-1" d="M2513.3,5411.76l26.7-46.4V5350.6l-31.21,54L2473.2,5343h-80.08l-40,69.35,35.59,61.65h-71.19l-40.14,69.1,57.09,98.9h9.15l-57.25-99.14,33.37-57.79,71.19,123.28L2371.46,5642h8.74l17.36-30h71.19l17.33,30h8.85l-16.56-28.58-4.06-7.05L2448.73,5562,2402,5481h66.74L2540,5604.25V5589.2l-64.58-111.83,33.37-57.79,25.67,44.44,5.54,9.59V5458l-14.88-25.71Zm-70.5,155.64,21.51,37.6h-66.74l-71.19-124h66.74Zm26-93.4h-71.19L2362,5412l35.59-62h71.19l35.59,62Z" transform="translate(-2277.34 -5343)"/></svg>